<?xml version="1.0" encoding="UTF-8"?>
<svg width="45px" height="45px" viewBox="0 0 45 45" version="1.1" xmlns="http://www.w3.org/2000/svg" xmlns:xlink="http://www.w3.org/1999/xlink">
    <!-- Generator: Sketch 52.6 (67491) - http://www.bohemiancoding.com/sketch -->
    <title>logo</title>
    <desc>Created with Sketch.</desc>
    <g id="Symbols" stroke="none" stroke-width="1" fill="none" fill-rule="evenodd">
        <g id="Footer" transform="translate(-337.000000, -176.000000)">
            <g id="Quienes-somos">
                <g transform="translate(337.000000, 176.000000)">
                    <g id="logo">
                        <path d="M38.5738783,20.8427143 C39.129455,21.8847857 39.129455,23.1685714 38.5738783,24.2106429 L28.3864737,43.315875 C27.8307485,44.3579464 26.8039037,44.9998393 25.6927502,44.9998393 L31.6624915,44.9998393 C32.7739419,44.9998393 33.8007867,44.3579464 34.3563634,43.315875 L44.543768,24.2106429 C45.0994932,23.1685714 45.0994932,21.8847857 44.543768,20.8427143 L34.3563634,1.73748214 C33.8007867,0.695410714 32.7739419,0.0535178571 31.6624915,0.0535178571 L25.6927502,0.0535178571 C26.8039037,0.0535178571 27.8307485,0.695410714 28.3864737,1.73748214 L38.5738783,20.8427143 Z" id="Fill-1" fill="#F1F1F1"></path>
                        <path d="M28.719544,2.53392849 C29.4950987,2.54613633 30.3004939,2.61472507 31.1227489,2.74483487 C32.7589037,3.00409069 34.2668935,3.47618045 35.5555556,4.09090909 L34.2642078,1.68307466 C33.7057428,0.64155375 32.6735598,0 31.5563314,0 L25.5555556,0 C26.6724856,0 27.7046685,0.64155375 28.2632828,1.68307466 L28.719544,2.53392849 Z" id="Fill-4" fill="#B3B3B3"></path>
                        <path d="M26.8881264,20.8140246 C27.4486476,21.8573405 27.4486476,23.1426595 26.8881264,24.1859754 L16.6071618,43.3140246 C16.0466407,44.3573405 15.010081,45 13.8888889,45 L19.9133679,45 C21.0350094,45 22.0712695,44.3573405 22.6319404,43.3140246 L32.9126054,24.1859754 C33.473576,23.1426595 33.473576,21.8573405 32.9126054,20.8140246 L22.6319404,1.68597541 C22.0712695,0.642659458 21.0350094,0 19.9133679,0 L13.8888889,0 C15.010081,0 16.0466407,0.642659458 16.6071618,1.68597541 L26.8881264,20.8140246 Z" id="Fill-6" fill="#F1F1F1"></path>
                        <path d="M6.4359765,24.2107232 C5.8759765,23.1686518 5.8759765,21.8847054 6.4359765,20.8427946 L16.7015962,1.7375625 C17.2615962,0.695491071 18.2963397,0.0535982143 19.4160406,0.0535982143 L13.4003782,0.0535982143 C12.2803782,0.0535982143 11.2456346,0.695491071 10.6857842,1.7375625 L0.420014957,20.8427946 C-0.139985043,21.8847054 -0.139985043,23.1686518 0.420014957,24.2107232 L10.6857842,43.3159554 C11.2456346,44.3580268 12.2803782,45.0000804 13.4003782,45.0000804 L19.4160406,45.0000804 C18.2963397,45.0000804 17.2615962,44.3580268 16.7015962,43.3159554 L6.4359765,24.2107232 Z" id="Fill-8" fill="#173A78"></path>
                        <path d="M12.5947795,24.2107232 C12.0393511,23.1686518 12.0393511,21.8847054 12.5947795,20.8427946 L22.7823325,1.7375625 C23.3379092,0.695491071 24.364754,0.0535982143 25.4759075,0.0535982143 L19.5061662,0.0535982143 C18.3947159,0.0535982143 17.3678711,0.695491071 16.8121459,1.7375625 L6.62503817,20.8427946 C6.06916455,21.8847054 6.06916455,23.1686518 6.62503817,24.2107232 L16.8121459,43.3159554 C17.3678711,44.3580268 18.3947159,45.0000804 19.5061662,45.0000804 L25.4759075,45.0000804 C24.364754,45.0000804 23.3379092,44.3580268 22.7823325,43.3159554 L12.5947795,24.2107232 Z" id="Fill-11" fill="#3B75BA"></path>
                        <path d="M18.6689979,24.2107232 C18.109297,23.1686518 18.109297,21.8847054 18.6689979,20.8427946 L28.9349167,1.7375625 C29.4947671,0.695491071 30.5295107,0.0535982143 31.6492115,0.0535982143 L25.6335491,0.0535982143 C24.5135491,0.0535982143 23.4788056,0.695491071 22.9188056,1.7375625 L12.6533355,20.8427946 C12.0931859,21.8847054 12.0931859,23.1686518 12.6533355,24.2107232 L22.9188056,43.3159554 C23.4788056,44.3580268 24.5135491,45.0000804 25.6335491,45.0000804 L31.6492115,45.0000804 C30.5295107,45.0000804 29.4947671,44.3580268 28.9349167,43.3159554 L18.6689979,24.2107232 Z" id="Fill-14" fill="#75C6C8"></path>
                    </g>
                </g>
            </g>
        </g>
    </g>
</svg>