<?xml version="1.0" encoding="UTF-8"?>
<svg width="80px" height="59px" viewBox="0 0 80 59" version="1.1" xmlns="http://www.w3.org/2000/svg" xmlns:xlink="http://www.w3.org/1999/xlink">
    <!-- Generator: Sketch 52.6 (67491) - http://www.bohemiancoding.com/sketch -->
    <title>payment</title>
    <desc>Created with Sketch.</desc>
    <g id="Inicio" stroke="none" stroke-width="1" fill="none" fill-rule="evenodd">
        <g transform="translate(-1037.000000, -894.000000)" id="Pagos">
            <g transform="translate(595.000000, 123.000000)">
                <g id="payment" transform="translate(482.000000, 800.824561) rotate(-90.000000) translate(-482.000000, -800.824561) translate(452.175439, 760.824561)">
                    <path d="M53.2878771,34.8275525 L18.5415055,34.8275525 C17.2883576,34.8275525 16.2630549,35.8464192 16.2630549,37.0917008 L16.2630549,56.6105451 C16.2630549,57.8558266 17.2883576,58.8746933 18.5415055,58.8746933 L53.2878771,58.8746933 C54.541025,58.8746933 55.5663277,57.8558266 55.5663277,56.6105451 L55.5663277,51.3652684 L55.5663277,37.0917008 C55.5568342,35.4030235 54.9872215,34.8275525 53.2878771,34.8275525 Z M46.9082155,37.0917008 C47.1645411,40.4879231 49.8796948,43.2049009 53.2878771,43.4973534 L53.2878771,50.2709301 C49.8702012,50.5256468 47.1360605,53.2237567 46.8417606,56.6105451 L24.9211672,56.6105451 C24.6648415,53.2143228 21.9496878,50.4973449 18.5415055,50.2048925 L18.5415055,43.4313157 C21.9591814,43.1765991 24.6933221,40.4784891 24.987622,37.0917008 L46.9082155,37.0917008 Z M49.1866661,37.0917008 L53.2783836,37.0917008 L53.2783836,41.2237712 C51.1328426,40.9407527 49.4334982,39.2332076 49.1866661,37.0917008 Z M22.6901843,37.0917008 C22.4148715,39.2237736 20.69654,40.9218848 18.5320119,41.1577336 L18.5320119,37.0917008 L22.6901843,37.0917008 Z M18.5415055,52.4784746 C20.6870465,52.7520592 22.3958844,54.4596043 22.633223,56.6105451 L18.5415055,56.6105451 L18.5415055,52.4784746 Z M49.1297048,56.6011111 C49.4050176,54.4690382 51.1233491,52.7709271 53.2878771,52.5350783 L53.2878771,56.6011111 L49.1297048,56.6011111 Z M43.3359599,47.7872513 C42.6859147,47.7872513 42.1540595,47.2115572 42.1540595,46.5079311 C42.1540595,45.804305 42.6859147,45.2286109 43.3359599,45.2286109 L47.8764271,45.2286109 C48.5264722,45.2286109 49.0583274,45.804305 49.0583274,46.5079311 C49.0583274,47.2115572 48.5264722,47.7872513 47.8764271,47.7872513 L43.3359599,47.7872513 Z M35.1244348,47.597662 C33.2922967,47.597662 31.8073005,46.1662358 31.7976577,44.4208193 C31.7976577,42.7215778 33.1958683,41.3270916 34.9508638,41.2439765 L34.9508638,40.3666508 C34.9508638,39.7571402 35.4715767,39.2584498 36.1080037,39.2584498 C36.7444306,39.2584498 37.2651435,39.7571402 37.2651435,40.3666508 L37.2651435,41.2347415 L38.6054972,41.2347415 C39.2419242,41.2347415 39.7626371,41.7334319 39.7626371,42.3429425 C39.7626371,42.952453 39.2419242,43.4511434 38.6054972,43.4511434 L35.1244348,43.4511434 C34.5651505,43.4511434 34.1119374,43.8851888 34.1119374,44.4208193 C34.1119374,44.9564497 34.5651505,45.3904951 35.1244348,45.3904951 L37.1012154,45.3904951 C38.9333535,45.3904951 40.4279925,46.8219214 40.4279925,48.5765729 C40.4279925,50.2758144 39.0297819,51.6703006 37.2747864,51.7534156 L37.2747864,52.6492114 C37.2747864,53.2587219 36.7540734,53.7574124 36.1176465,53.7574124 C35.4812196,53.7574124 34.9605066,53.2587219 34.9605066,52.6492114 L34.9605066,51.7534156 L33.5526531,51.7534156 C32.9162262,51.7534156 32.3955133,51.2547252 32.3955133,50.6452147 C32.3955133,50.0357042 32.9162262,49.5370137 33.5526531,49.5370137 L37.1012154,49.5370137 C37.6604997,49.5370137 38.1137128,49.1029683 38.1137128,48.5673379 C38.1137128,48.0317074 37.6604997,47.597662 37.1012154,47.597662 L35.1244348,47.597662 Z M24.3492231,45.2286109 L28.8896903,45.2286109 C29.5397355,45.2286109 30.0715907,45.804305 30.0715907,46.5079311 C30.0715907,47.2115572 29.5397355,47.7872513 28.8896903,47.7872513 L24.3492231,47.7872513 C23.6991779,47.7872513 23.1673228,47.2115572 23.1673228,46.5079311 C23.1673228,45.804305 23.6991779,45.2286109 24.3492231,45.2286109 Z" id="Shape" fill="#000000" fill-rule="nonzero" transform="translate(35.914691, 46.851123) rotate(-90.000000) translate(-35.914691, -46.851123) "></path>
                    <path d="M28.6633281,31.5893793 C27.1455832,33.6093996 24.7293128,34.8153958 22.1997663,34.8153958 L-1.18485869,34.8153958 L-1.18485869,21.3917962 L-1.09684997,21.2771018 C0.253499126,19.517743 2.18670325,18.3987476 4.34671548,18.1263269 C4.68193395,18.0840621 5.02312779,18.0625888 5.36090713,18.0625888 C7.32910986,18.0625888 9.22577884,18.7766599 10.7015254,20.0730654 L11.4202775,20.7043963 C12.1811133,21.3727941 13.1581723,21.7408219 14.1717664,21.7408219 L22.1997663,21.7408219 C23.2790896,21.7408219 24.157128,22.6173059 24.157128,23.6947182 C24.157128,24.7720453 23.2790896,25.6485292 22.1997663,25.6485292 L12.8861221,25.6485292 C12.2775729,25.6485292 11.7824705,26.1427551 11.7824705,26.750312 C11.7824705,27.3578689 12.2775729,27.8520947 12.8861221,27.8520947 L23.2256526,27.8520947 C24.3773632,27.8520947 25.4880999,27.3696281 26.2731786,26.5284216 L33.0113514,19.3077823 C33.3860074,18.9063516 33.8894753,18.6853134 34.4290515,18.6853134 C35.6635638,18.6853134 36.4012663,19.6787925 36.4012663,20.6391244 C36.4012663,21.0654368 36.2663936,21.4701907 36.0113305,21.8096727 L28.6633281,31.5893793 Z M-10.5720001,34.8153958 L-3.3922471,34.8153958 L-3.3922471,21.7408219 L-10.5720001,21.7408219 L-10.5720001,34.8153958 Z M37.7772242,23.1317268 C38.3212393,22.4078564 38.6087401,21.5459436 38.6087401,20.638954 C38.6087401,18.5955858 37.033973,16.4819183 34.3986625,16.4819183 C33.2590734,16.4819183 32.1927252,16.9521145 31.3960372,17.8057618 L26.3962713,23.1636811 L26.1778287,22.4625621 C25.6326185,20.7128322 24.0340353,19.5373416 22.1997663,19.5373416 L14.171681,19.5373416 C13.402309,19.5373416 12.9968372,19.1715293 12.4355789,18.6652035 C12.3500457,18.5880872 12.2588785,18.5058583 12.1597727,18.4188575 C10.2807738,16.7681432 7.86612524,15.8591085 5.36065104,15.8591085 C4.93085094,15.8591085 4.496612,15.8864614 4.06997032,15.9403149 C1.52838779,16.2607948 -0.709901842,17.4541798 -2.40306666,19.3913746 L-2.53068357,19.5373416 L-11.675737,19.5373416 C-12.2843714,19.5373416 -12.7794738,20.0314823 -12.7794738,20.6390392 L-12.7794738,35.9171786 C-12.7794738,36.5247355 -12.2843714,37.0189613 -11.675737,37.0189613 L22.1997663,37.0189613 C25.4204074,37.0189613 28.4968712,35.4834528 30.4292217,32.9115186 L37.7772242,23.1317268 Z" id="Fill-1" fill="#000000" transform="translate(12.914633, 26.439035) rotate(95.000000) translate(-12.914633, -26.439035) "></path>
                    <path d="M51.2181289,60.2948285 L43.5983307,52.4814706 C42.2964437,51.046755 41.2962654,50.2831312 40.5977957,50.1905991 C39.5500912,50.0518008 38.7300869,49.0339473 37.681673,50.0518008 C36.6332591,51.0696544 36.5467189,51.2841607 36.6332591,52.4814706 C36.6909526,53.2796771 38.0124648,55.2597715 40.5977957,58.4217536 L43.5983307,61.0995777 L43.5983307,65.4324653 C44.2353237,69.1384243 45.1700057,71.0977223 46.4023767,71.3103593 C47.6347477,71.5229963 49.2399984,71.6293148 51.2181289,71.6293148 L51.2181289,60.2948285 Z" id="Path-2" fill="#FFFFFF"></path>
                    <path d="M39.5584492,49.4229596 C40.1629787,49.4400144 40.7254233,49.6884563 41.1396119,50.1225065 L52.7134767,62.2759123 L53.968254,61.1091032 L42.3926735,48.9547998 C41.6614854,48.1896267 40.6719341,47.7513876 39.6074978,47.7215666 C38.5318591,47.6858612 37.5302979,48.0730355 36.7655024,48.7871439 C36.7560156,48.796519 36.6870851,48.8611478 36.6785067,48.870523 C35.2067446,50.3292588 35.1076381,52.6186942 36.4503195,54.2000053 L43.8679678,62.8554771 L43.8679678,65.4887017 C43.8670595,70.1917434 46.8598341,74.4582415 51.3165996,76.1075724 L51.9211292,74.5134951 C48.133484,73.1118082 45.5895146,69.4853147 45.590322,65.4887017 L45.590322,62.5440021 C45.590322,62.3431342 45.5179601,62.1473529 45.3862554,61.9933608 L37.7671645,53.1021136 C37.004993,52.2050898 37.0610053,50.9020415 37.9394403,50.0331432 C38.3785568,49.6229299 38.952103,49.4194689 39.5584492,49.4229596 Z" id="Shape" fill="#000000" fill-rule="nonzero"></path>
                    <path d="M57.0444895,51.0785902 L48.6425077,40.7017544 L47.3038032,41.7597812 L55.705785,52.1357243 C56.7960794,53.4814924 57.3955758,55.1726293 57.3947728,56.8966962 L57.3947728,77.6248768 L44.864667,77.6248768 C40.4401572,77.6248768 36.839566,74.0674389 36.839566,69.6941886 L36.839566,66.6217748 L35.1265903,66.6217748 L35.1265903,69.6941886 C35.1265903,75.0001926 39.4954963,79.3176998 44.864667,79.3176998 L58.2513109,79.3176998 C58.7249461,79.3176998 59.1077485,78.9394009 59.1077485,78.4713379 L59.1077485,56.8975889 C59.1086518,54.7917515 58.376369,52.7247954 57.0444895,51.0785902 Z" id="Shape" fill="#000000" fill-rule="nonzero"></path>
                </g>
            </g>
        </g>
    </g>
</svg>