<?xml version="1.0" encoding="UTF-8"?>
<svg width="82px" height="62px" viewBox="0 0 82 62" version="1.1" xmlns="http://www.w3.org/2000/svg" xmlns:xlink="http://www.w3.org/1999/xlink">
    <!-- Generator: Sketch 52.6 (67491) - http://www.bohemiancoding.com/sketch -->
    <title>super-clientes</title>
    <desc>Created with Sketch.</desc>
    <g id="Inicio" stroke="none" stroke-width="1" fill="none" fill-rule="evenodd">
        <g transform="translate(-665.000000, -892.000000)" fill-rule="nonzero" id="Clientes">
            <g transform="translate(665.000000, 892.000000)">
                <g id="super-clientes">
                    <path d="M27.9,54.4222222 C27.3293244,54.4222222 26.8666667,54.962894 26.8666667,55.6297977 L26.8666667,60.7924245 C26.8666667,61.4593282 27.3293244,62 27.9,62 C28.4706756,62 28.9333333,61.4593282 28.9333333,60.7924245 L28.9333333,55.6297977 C28.9333333,54.962894 28.4706756,54.4222222 27.9,54.4222222 Z" id="Shape" fill="#000000"></path>
                    <path d="M52.7,54.4222222 C52.1293244,54.4222222 51.6666667,54.962894 51.6666667,55.6297977 L51.6666667,60.7924245 C51.6666667,61.4593282 52.1293244,62 52.7,62 C53.2706756,62 53.7333333,61.4593282 53.7333333,60.7924245 L53.7333333,55.6297977 C53.7333333,54.962894 53.2706756,54.4222222 52.7,54.4222222 Z" id="Shape" fill="#000000"></path>
                    <path d="M18.609625,29.5625427 C15.7574575,28.2594092 10.409971,28.2444444 10.1836449,28.2444444 C9.50548545,28.2444444 8.95571936,28.7466626 8.95555559,29.366504 C8.95539183,29.9861957 9.50499415,30.4888628 10.1833174,30.4891621 C11.565184,30.4899104 15.575021,30.6856497 17.5110755,31.5702181 C17.6874526,31.6508783 17.8748021,31.6888889 18.0593676,31.6888889 C18.5098909,31.6888889 18.9437099,31.4614242 19.1588998,31.0682993 C19.4623602,30.513854 19.2163821,29.8396905 18.609625,29.5625427 Z" id="Shape" fill="#000000"></path>
                    <path d="M5.85555556,51.6666667 C5.28488,51.6666667 4.82222222,52.216603 4.82222222,52.8949343 L4.82222222,60.7717324 C4.82222222,61.4500637 5.28488,62 5.85555556,62 C6.42623111,62 6.88888889,61.4500637 6.88888889,60.7717324 L6.88888889,52.8949343 C6.88888889,52.2167668 6.42636889,51.6666667 5.85555556,51.6666667 Z" id="Shape" fill="#000000"></path>
                    <path d="M78.5198328,47.5813181 L73.6977599,45.1782835 C73.6698169,45.1643566 73.6523525,45.1361861 73.6523525,45.105167 L73.65267,42.6893133 C75.6321776,41.3306429 77.0332969,39.182725 77.3838545,36.6619444 C78.2742201,35.1282373 78.7433768,33.3959128 78.7433768,31.6344682 C78.7433768,28.3497618 77.1566589,25.4279479 74.7076771,23.5892719 C74.8512025,23.1127482 74.9253467,22.6211896 74.9253467,22.1196606 C74.9253467,19.0167961 72.1073903,16.4923754 68.6438871,16.4923754 C65.1803839,16.4923754 62.3624275,19.0167961 62.3624275,22.1196606 C62.3624275,22.6218227 62.4357779,23.1135395 62.5793033,23.5897467 C61.1191227,24.6861787 59.9677441,26.1687675 59.2745671,27.8827337 C58.9794192,24.9914641 58.6720462,21.573502 58.3772158,17.5919726 C57.9882365,12.338658 56.0928754,7.90228662 52.8962596,4.76270555 C49.7239352,1.64686362 45.4872364,0 40.6443651,0 C35.8014937,0 31.5647949,1.64686362 28.392788,4.76254729 C25.1961722,7.90228662 23.3008112,12.338658 22.9118319,17.5918143 C22.8084745,18.9865682 22.7036883,20.3085221 22.5984257,21.566855 L11.3723251,21.566855 C7.20691275,21.566855 3.81803004,24.9449354 3.81803004,29.0970701 L3.81803004,29.1678128 C3.81803004,30.1347873 4.04728966,31.1031862 4.48120002,31.9680823 L5.09070672,33.1833683 L5.09070672,35.1212738 C5.09070672,38.1924862 6.60899603,40.9482844 8.90873677,42.6067011 L8.90873677,44.3209839 C8.90873677,44.5408084 8.76060711,44.7364189 8.5486531,44.7968746 L3.63274889,46.1970094 C1.49383918,46.8059976 0,48.7801449 0,50.9975393 L0,60.8130427 C0,61.4685597 0.533139757,62 1.19075288,62 C1.84836601,62 2.38150577,61.4685597 2.38150577,60.8130427 L2.38150577,50.9975393 C2.38150577,49.8343212 3.16517993,48.7988197 4.28702791,48.4792908 L9.20309088,47.079156 C9.38043368,47.0286708 9.54888552,46.9601438 9.70924024,46.8787976 L12.7269256,49.8868638 L12.7269256,60.8130427 C12.7269256,61.4685597 13.2600653,62 13.9176785,62 C14.5752916,62 15.1084313,61.4685597 15.1084313,60.8130427 L15.1084313,49.8868638 L18.1472327,46.8577489 C18.5533588,47.0563664 18.958056,47.1718969 19.2546329,47.2564083 L20.4617388,47.6001511 C18.8259618,48.759571 17.8177911,50.6506313 17.8177911,52.7012186 L17.8177911,60.8127262 C17.8177911,61.4682432 18.3509308,61.9996835 19.008544,61.9996835 C19.6661571,61.9996835 20.1992968,61.4682432 20.1992968,60.8127262 L20.1992968,52.7012186 C20.1992968,51.1626055 21.1117311,49.7667438 22.5238052,49.1450947 L29.3317364,46.1477902 C31.4650892,50.4064346 35.8245149,53.1193441 40.6445238,53.1193441 C45.4824734,53.1193441 49.8272925,50.4124485 51.9593753,46.1487398 L58.7652424,49.1450947 C60.1773166,49.7667438 61.0897508,51.1626055 61.0897508,52.7012186 L61.0897508,60.8127262 C61.0897508,61.4682432 61.6228906,61.9996835 62.2805037,61.9996835 C62.9381168,61.9996835 63.4712566,61.4682432 63.4712566,60.8127262 L63.4712566,52.7012186 C63.4712566,51.1828629 62.9176359,49.7525003 61.9674151,48.6405587 L63.8102242,47.7221703 L65.1935616,49.0325711 C66.161088,49.9492187 67.4023288,50.4072259 68.6440459,50.4072259 C69.8852867,50.4072259 71.1271626,49.9489021 72.0943714,49.0325711 L73.47755,47.7223286 L77.4549821,49.7045472 C78.3509046,50.1510014 78.9073831,51.0486576 78.9073831,52.047126 L78.9073831,60.8128845 C78.9073831,61.4684014 79.4405229,61.9998417 80.098136,61.9998417 C80.7557491,61.9998417 81.2888889,61.4684014 81.2888889,60.8128845 L81.2888889,52.047126 C81.2887301,50.1438796 80.2276899,48.4326038 78.5198328,47.5813181 Z M68.6437283,18.8661316 C70.7940693,18.8661316 72.5436822,20.3256143 72.5436822,22.1195023 C72.5436822,22.1946763 72.537649,22.2692172 72.5316159,22.3435999 C71.3341948,21.8438117 70.0208737,21.566855 68.6437283,21.566855 C67.2667417,21.566855 65.9535794,21.8438117 64.7564759,22.3434416 C64.750284,22.269059 64.7437745,22.1946763 64.7437745,22.1195023 C64.7437745,20.3256143 66.4933874,18.8661316 68.6437283,18.8661316 Z M13.9178372,47.7167894 L11.2045083,45.0121095 C11.2605531,44.7892781 11.2905601,44.5574258 11.2905601,44.3208256 L11.2905601,43.8200879 C12.039623,44.0652341 12.8296479,44.210676 13.6471394,44.2350482 C13.738748,44.2378969 13.8298803,44.239163 13.9211713,44.239163 C14.8242383,44.239163 15.7058718,44.1032168 16.5447969,43.8438271 L16.5447969,44.3203508 C16.5447969,44.5778414 16.571311,44.8114346 16.6184648,45.0247704 L13.9178372,47.7167894 Z M13.7185846,41.861925 C10.2742922,41.7592136 7.47221249,38.735163 7.47221249,35.1212738 L7.47221249,32.9030881 C7.47221249,32.7188724 7.42918662,32.5370305 7.34646898,32.3722808 L6.61121877,30.9064678 C6.34194985,30.36933 6.19953581,29.7682549 6.19953581,29.1678128 L6.19953581,29.0970701 C6.19953581,26.2539119 8.52007503,23.9407696 11.3723251,23.9407696 L21.6359799,23.9407696 L21.6359799,28.8682248 C21.6359799,29.6644357 21.4472059,30.4619127 21.0898212,31.1740871 L20.4888879,32.3721226 C20.4061703,32.5370305 20.3631444,32.7187141 20.3631444,32.9029299 L20.3631444,35.4401697 C20.3631444,37.1927516 19.6680623,38.8304361 18.4058642,40.0512612 C17.1443012,41.2714533 15.4786761,41.9151006 13.7185846,41.861925 Z M23.6705796,46.0450788 L19.9089119,44.9738104 C18.9261439,44.694005 18.9263026,44.5848049 18.9263026,44.3206674 L18.9266202,42.6853568 C19.3265544,42.4091914 19.7079128,42.1001077 20.0646624,41.7549406 C20.3047182,41.5227717 20.5282622,41.2784168 20.7378347,41.0251992 C20.929149,41.411989 21.2223917,41.7498762 21.6013687,41.9943894 C22.5558762,42.6104993 24.3570884,43.633973 27.0059578,44.5765753 L23.6705796,46.0450788 Z M40.6443651,50.7455878 C36.7701315,50.7455878 33.2613797,48.5869082 31.511608,45.188254 L33.2448679,44.4251196 C34.5975632,43.8295836 35.4715758,42.4924367 35.4715758,41.018394 L35.4715758,38.1703296 C37.0714713,38.8111283 38.8172738,39.164525 40.6443651,39.164525 C42.4714563,39.164525 44.2171,38.8111283 45.8171544,38.1703296 L45.8171544,41.018394 C45.8171544,42.4924367 46.691167,43.8297418 48.0438622,44.4251196 L49.7768046,45.1880957 C48.0283031,48.5905482 44.5330464,50.7455878 40.6443651,50.7455878 Z M50.9696215,43.1180423 L49.0059906,42.2534626 C48.5155591,42.0375946 48.1986601,41.552683 48.1986601,41.0182357 L48.1986601,36.9374767 C52.0252636,34.46275 54.5622023,30.166756 54.5622023,25.2910521 L54.5622023,23.0654281 C54.5622023,21.6189229 53.9452335,20.2543968 52.869428,19.3219232 C50.4769673,17.247755 45.0612644,13.6281684 35.6720986,12.692213 C35.0194072,12.6270095 34.4341919,13.102742 34.3687798,13.755252 C34.3033678,14.4076037 34.7807803,14.9892127 35.4352181,15.0544162 C44.1681998,15.9248516 49.1276061,19.224118 51.3066839,21.1132791 C51.8622098,21.594709 52.1806965,22.3064085 52.1806965,23.0654281 L52.1806965,25.2910521 C52.1806965,31.6317778 47.0055257,36.7904523 40.6445238,36.7904523 C34.2835219,36.7904523 29.1083511,31.6317778 29.1083511,25.2910521 L29.1083511,24.2981228 C29.1083511,23.8420147 29.3620609,23.4242058 29.7869215,23.1803256 C31.2756801,22.3258746 33.2389935,20.7429485 34.1380913,18.0545694 C34.3460761,17.4327621 34.0088549,16.7604695 33.3849004,16.5531476 C32.7612634,16.3458257 32.0866622,16.681972 31.8786774,17.3039376 C31.2163013,19.2847319 29.7292891,20.4740631 28.5985501,21.1230913 C27.4439961,21.78573 26.7266866,23.0024403 26.7266866,24.2982811 L26.7266866,25.2912104 C26.7266866,30.1670725 29.2634665,34.4629082 33.0902288,36.937635 L33.0902288,41.018394 C33.0902288,41.5528413 32.7733297,42.0375946 32.2828983,42.2536209 L30.3191087,43.1182005 C26.4839318,42.0953599 24.0265354,40.7316251 22.8956377,40.0018838 C22.8730927,39.9873238 22.8603914,39.9707064 22.8667421,39.9331986 C23.2820767,37.485851 24.3493088,30.4266205 25.286987,17.7666927 C25.6327816,13.0956203 27.2847528,9.18340915 30.0642875,6.45340746 C32.7815856,3.78465277 36.4400548,2.37391451 40.6443651,2.37391451 C44.8486753,2.37391451 48.5071445,3.78465277 51.2244426,6.45340746 C54.0039773,9.18340915 55.6559485,13.095462 56.0019019,17.7665344 C56.9394213,30.4259875 58.0066535,37.4855344 58.4221468,39.9330403 C58.4284975,39.9707064 58.4157961,39.9873238 58.3930925,40.0018838 C57.2606071,40.7325747 54.8032107,42.0955182 50.9696215,43.1180423 Z M63.6349454,45.1050087 C63.6349454,45.1361861 63.6176398,45.1641983 63.5896968,45.1781253 L59.8589886,47.0375334 C59.8146926,47.0168012 59.7721431,46.9935368 59.7273708,46.9737542 L54.2830898,44.5768919 C56.9306892,43.6346061 58.7315838,42.6116072 59.6873615,41.9947059 C60.5085046,41.4646899 60.9336828,40.5002476 60.7703115,39.5372296 C60.7614206,39.4845287 60.7517358,39.4267635 60.7422097,39.3697895 C61.4118892,40.712159 62.413233,41.8508467 63.6349454,42.6893133 L63.6349454,45.1050087 Z M70.4533552,47.3119579 C69.438675,48.2735515 67.8487817,48.2733933 66.833784,47.3119579 L65.7270188,46.2636372 C65.9137289,45.9148301 66.0162924,45.5191777 66.0162924,45.1050087 L66.0162924,43.8419279 C66.8479142,44.099102 67.730024,44.2390047 68.6435696,44.2390047 C69.5569564,44.2390047 70.4392249,44.099102 71.270688,43.8419279 L71.2705292,45.1046922 C71.2705292,45.5191777 71.3730927,45.9148301 71.5599615,46.2637955 L70.4533552,47.3119579 Z M68.6437283,41.8649319 C65.3467718,41.8649319 62.593116,39.4039739 62.2385892,36.1404745 C62.2195372,35.9655961 62.1619047,35.7972064 62.0695023,35.647175 C61.3210744,34.4322056 60.9255857,33.0445734 60.9255857,31.6341517 C60.9255857,27.3921247 64.3878188,23.9407696 68.6437283,23.9407696 C72.8994791,23.9407696 76.361871,27.3921247 76.361871,31.63431 C76.361871,32.4520444 76.2280304,33.262024 75.9703514,34.0352871 C72.5892483,30.6113111 66.6413583,29.2694163 66.354625,29.2064285 C66.0024797,29.1290388 65.6338226,29.2151328 65.3524874,29.4403382 C65.0713109,29.6657018 64.9076221,30.0059629 64.9076221,30.3655318 C64.9076221,30.3732866 64.8533238,31.1967184 63.9837566,32.0635137 C63.5187279,32.5270601 63.5187279,33.2786414 63.9837566,33.7420295 C64.4487853,34.2055759 65.20277,34.2055759 65.66764,33.7420295 C66.3373194,33.0744848 66.7307441,32.3969696 66.9615914,31.8248562 C68.9652316,32.4181765 73.123817,33.9165914 74.9901237,36.5467304 C74.4604768,39.6057566 71.8020813,41.8649319 68.6437283,41.8649319 Z" id="Shape" fill="#2F2F2F"></path>
                    <path d="M74.7444444,53.7333333 C74.1737689,53.7333333 73.7111111,54.2552554 73.7111111,54.8990317 L73.7111111,60.8343016 C73.7111111,61.478078 74.1737689,62 74.7444444,62 C75.31512,62 75.7777778,61.478078 75.7777778,60.8343016 L75.7777778,54.8990317 C75.7777778,54.2552554 75.31512,53.7333333 74.7444444,53.7333333 Z" id="Shape" fill="#0F0F0F"></path>
                </g>
            </g>
        </g>
    </g>
</svg>