<?xml version="1.0" encoding="UTF-8"?>
<svg width="23px" height="16px" viewBox="0 0 23 16" version="1.1" xmlns="http://www.w3.org/2000/svg" xmlns:xlink="http://www.w3.org/1999/xlink">
    <g id="Inicio" stroke="none" stroke-width="1" fill="none" fill-rule="evenodd">
        <g transform="translate(-343.000000, -2376.000000)" fill="#425F93" id="Soporte">
            <g transform="translate(337.000000, 2021.000000)">
                <g id="soporte-email" transform="translate(6.000000, 350.000000)">
                    <g id="flaticon1517977089-svg" transform="translate(0.000000, 5.000000)">
                        <path d="M20.1922084,0 L2.81253715,0 C1.26112072,0 0,1.15280044 0,2.57096248 L0,13.4290375 C0,14.8471996 1.26112072,16 2.81253715,16 L20.1874494,16 C21.7388659,16 22.9999866,14.8471996 22.9999866,13.4290375 L22.9999866,2.57531267 C23.0047455,1.15715063 21.7436248,0 20.1922084,0 Z M21.7198301,13.4290375 C21.7198301,14.1990212 21.0345418,14.8254486 20.1922084,14.8254486 L2.81253715,14.8254486 C1.97020369,14.8254486 1.28491545,14.1990212 1.28491545,13.4290375 L1.28491545,2.57531267 C1.28491545,1.80532898 1.97020369,1.17890158 2.81253715,1.17890158 L20.1874494,1.17890158 C21.0297829,1.17890158 21.7150711,1.80532898 21.7150711,2.57531267 L21.7150711,13.4290375 L21.7198301,13.4290375 Z" id="Shape" fill-rule="nonzero"></path>
                        <path d="M14.0526516,7.39437474 L19.7729369,2.88774122 C20.0391092,2.67516417 20.0633067,2.31378317 19.8213318,2.07569688 C19.579357,1.84186212 19.1679998,1.82060441 18.896988,2.03318146 L11.0086081,8.25318604 L9.46964816,7.04574838 C9.46480866,7.04149684 9.45996917,7.03724529 9.45996917,7.03299375 C9.42609269,7.00323297 9.39221621,6.97772372 9.35350024,6.95221447 L3.09119136,2.02892992 C2.82017953,1.81635287 2.4088223,1.83761058 2.16684746,2.07569688 C1.92487262,2.31378317 1.94907011,2.67516417 2.22008193,2.88774122 L8.00812012,7.43263861 L2.24427941,12.1731069 C1.98294658,12.3899355 1.96842809,12.7513165 2.21524243,12.9851512 C2.34590885,13.1041944 2.52013073,13.1679675 2.69435262,13.1679675 C2.85405601,13.1679675 3.01375941,13.116949 3.13958632,13.014912 L8.99053797,8.20641909 L10.5778929,9.45212062 C10.7037198,9.54990606 10.8585837,9.59667301 11.0134476,9.59667301 C11.1683115,9.59667301 11.3280149,9.54565452 11.4490024,9.44786908 L13.0799128,8.16390368 L18.896988,13.0191636 C19.0228149,13.1254521 19.1873578,13.1764706 19.3470612,13.1764706 C19.521283,13.1764706 19.6906654,13.116949 19.8213318,12.9979059 C20.0681462,12.7683226 20.0584672,12.4026901 19.7971344,12.1858615 L14.0526516,7.39437474 Z" id="Path"></path>
                    </g>
                </g>
            </g>
        </g>
    </g>
</svg>