<?xml version="1.0" encoding="UTF-8"?>
<svg width="96px" height="65px" viewBox="0 0 96 65" version="1.1" xmlns="http://www.w3.org/2000/svg" xmlns:xlink="http://www.w3.org/1999/xlink">
    <!-- Generator: Sketch 52.6 (67491) - http://www.bohemiancoding.com/sketch -->
    <title>business</title>
    <desc>Created with Sketch.</desc>
    <g id="Inicio" stroke="none" stroke-width="1" fill="none" fill-rule="evenodd">
        <g transform="translate(-292.000000, -894.000000)" id="Facturas">
            <g transform="translate(292.000000, 894.000000)">
                <g id="business">
                    <path d="M91.9349516,64 L51.0651758,64 C49.3722423,64 48,62.635169 48,60.951662 L48,4.04833803 C48,2.36483099 49.3723698,1 51.0651758,1 L91.9348242,1 C93.6277577,1 95,2.36483099 95,4.04833803 L95,60.9515352 C95.0001275,62.635169 93.6277577,64 91.9349516,64 Z" id="Shape" fill="#C0BCC1" fill-rule="nonzero"></path>
                    <polygon id="Rectangle-path" fill="#FFFFFF" fill-rule="nonzero" points="48 5 95 5 95 56 48 56"></polygon>
                    <g id="Group" transform="translate(48.000000, 5.000000)" fill="#EDEBED" fill-rule="nonzero">
                        <path d="M21.4635027,47.8693358 C11.3408459,47.8693358 3.13477297,39.6736866 3.13477297,29.5638881 L3.13477297,0.0716791045 L0.0799,0.0716791045 L0.0799,50.9202015 L46.9201,50.9202015 L46.9201,47.8693358 L21.4635027,47.8693358 Z" id="Shape"></path>
                        <polygon id="Rectangle-path" points="7.20751351 24.4787313 39.7924865 24.4787313 39.7924865 42.7841791 7.20751351 42.7841791"></polygon>
                    </g>
                    <path d="M58.1395968,20.8387158 C58.1395968,20.3170916 57.6606124,19.8944287 57.0697984,19.8944287 C56.4789844,19.8944287 56,20.3170916 56,20.8387158 C56,22.3469311 57.4399486,23.5757633 59.4302016,23.9038716 L59.4302016,24.0557129 C59.4302016,24.5773371 59.909186,25 60.5,25 C61.090814,25 61.5697984,24.5773371 61.5697984,24.0557129 L61.5697984,23.9038716 C63.5600514,23.5757633 65,22.347057 65,20.8387158 C65,18.7311929 63.0921928,17.8455776 61.5697984,17.3357885 L61.5697984,14.0438779 C62.3621624,14.2723953 62.8604032,14.733711 62.8604032,15.1614101 C62.8604032,15.6830343 63.3393876,16.1056972 63.9302016,16.1056972 C64.5210156,16.1056972 65,15.6830343 65,15.1614101 C65,13.6531948 63.5600514,12.4243626 61.5697984,12.0962543 L61.5697984,11.9442871 C61.5697984,11.4226629 61.090814,11 60.5,11 C59.909186,11 59.4302016,11.4226629 59.4302016,11.9442871 L59.4302016,12.0962543 C57.4399486,12.4243626 56,13.6530689 56,15.1614101 C56,17.2690589 57.9078072,18.1546742 59.4302016,18.6642115 L59.4302016,21.9561221 C58.6379802,21.7277306 58.1395968,21.2664149 58.1395968,20.8387158 Z M62.8605458,20.8387158 C62.8605458,21.2664149 62.3623051,21.7278565 61.569941,21.956248 L61.569941,19.3958451 C62.642307,19.8591753 62.8605458,20.2634561 62.8605458,20.8387158 Z M58.1395968,15.161536 C58.1395968,14.733837 58.6378376,14.2723953 59.4302016,14.0440038 L59.4302016,16.6044067 C58.3578357,16.1410765 58.1395968,15.7366698 58.1395968,15.161536 Z" id="Shape" fill="#000000" fill-rule="nonzero"></path>
                    <path d="M55,28.9416728 L55,47.0583272 C55,47.5785073 55.4204982,48 55.9391712,48 L88.0608288,48 C88.579627,48 89,47.5785073 89,47.0583272 L89,28.9416728 C89,28.4214927 88.579627,28 88.0608288,28 L55.9391712,28 C55.4204982,28 55,28.4216183 55,28.9416728 Z M80.0951546,35.9223559 L80.0951546,40.0778952 L74.9468687,40.0778952 L74.9468687,35.9223559 L80.0951546,35.9223559 Z M74.9467435,34.0390104 L74.9467435,29.8833456 L80.0950294,29.8833456 L80.0950294,34.0390104 L74.9467435,34.0390104 Z M87.1216577,40.0778952 L81.973497,40.0778952 L81.973497,35.9223559 L87.1216577,35.9223559 L87.1216577,40.0778952 Z M80.0951546,41.9612407 L80.0951546,46.11678 L74.9468687,46.11678 L74.9468687,41.9612407 L80.0951546,41.9612407 Z M73.0685263,40.0778952 L56.8783423,40.0778952 L56.8783423,35.9223559 L73.0685263,35.9223559 L73.0685263,40.0778952 Z M56.8783423,41.9612407 L73.0685263,41.9612407 L73.0685263,46.11678 L56.8783423,46.11678 L56.8783423,41.9612407 Z M81.973497,46.1166544 L81.973497,41.9611152 L87.1216577,41.9611152 L87.1216577,46.1166544 L81.973497,46.1166544 Z M87.1216577,34.0390104 L81.973497,34.0390104 L81.973497,29.8833456 L87.1216577,29.8833456 L87.1216577,34.0390104 Z M73.0684011,29.8833456 L73.0684011,34.0390104 L56.8783423,34.0390104 L56.8783423,29.8833456 L73.0684011,29.8833456 Z" id="Shape" fill="#000000" fill-rule="nonzero"></path>
                    <path d="M81.0331625,14 C81.5672435,14 82,13.5524 82,13 C82,12.4476 81.5672435,12 81.0331625,12 L78.9668375,12 C78.4327565,12 78,12.4476 78,13 C78,13.5524 78.4327565,14 78.9668375,14 L81.0331625,14 Z" id="Shape" fill="#000000" fill-rule="nonzero"></path>
                    <path d="M68.0546447,14 L75.9453553,14 C76.5279411,14 77,13.5524 77,13 C77,12.4476 76.5279411,12 75.9453553,12 L68.0546447,12 C67.4721996,12 67,12.4476 67,13 C67,13.5524 67.4720589,14 68.0546447,14 Z" id="Shape" fill="#000000" fill-rule="nonzero"></path>
                    <path d="M67.9437128,18 L81.0562872,18 C81.5775942,18 82,17.5524 82,17 C82,16.4476 81.5775942,16 81.0562872,16 L67.9437128,16 C67.4225317,16 67,16.4476 67,17 C67,17.5524 67.4224058,18 67.9437128,18 Z" id="Shape" fill="#000000" fill-rule="nonzero"></path>
                    <path d="M81.033256,21 L78.966744,21 C78.4327146,21 78,21.4476 78,22 C78,22.5524 78.4327146,23 78.966744,23 L81.033256,23 C81.5672854,23 82,22.5524 82,22 C82,21.4476 81.5671565,21 81.033256,21 Z" id="Shape" fill="#000000" fill-rule="nonzero"></path>
                    <path d="M68.0546595,23 L75.9453405,23 C76.5279344,23 77,22.5524 77,22 C77,21.4476 76.5279344,21 75.9453405,21 L68.0546595,21 C67.4722062,21 67,21.4476 67,22 C67,22.5524 67.4720656,23 68.0546595,23 Z" id="Shape" fill="#000000" fill-rule="nonzero"></path>
                    <path d="M91.9715095,0 L51.0283628,0 C48.8070683,0 47,1.79664063 47,4.00524414 L47,60.9947559 C47,63.2032324 48.8070683,65 51.0283628,65 L91.9715095,65 C94.192804,65 96,63.2033594 96,60.9947559 L96,4.00524414 C96,1.79664063 94.1929317,0 91.9715095,0 Z M94.0846506,60.9947559 C94.0846506,62.1532031 93.1366804,63.0957031 91.9715095,63.0957031 L51.0283628,63.0957031 C49.8631919,63.0957031 48.9153494,62.1532031 48.9153494,60.9947559 L48.9153494,4.00524414 C48.9153494,2.84679687 49.8633196,1.90429688 51.0283628,1.90429688 L91.9715095,1.90429688 C93.1366804,1.90429688 94.0846506,2.84679687 94.0846506,4.00524414 L94.0846506,60.9947559 Z" id="Shape" fill="#000000" fill-rule="nonzero"></path>
                    <path d="M90.06149,54 L51.9386352,54 C51.4202582,54 51,54.4476 51,55 C51,55.5524 51.4202582,56 51.9386352,56 L90.0613648,56 C90.5798669,56 91,55.5524 91,55 C91,54.4476 90.5798669,54 90.06149,54 Z" id="Shape" fill="#000000" fill-rule="nonzero"></path>
                    <path d="M90.06149,4 L51.9386352,4 C51.4202582,4 51,4.4476 51,5 C51,5.5524 51.4202582,6 51.9386352,6 L90.0613648,6 C90.5798669,6 91,5.5524 91,5 C91,4.4476 90.5798669,4 90.06149,4 Z" id="Shape" fill="#000000" fill-rule="nonzero"></path>
                    <path d="M74.0438552,59 L69.9561448,59 C69.4280979,59 69,59.4476 69,60 C69,60.5524 69.4280979,61 69.9561448,61 L74.0438552,61 C74.5720296,61 75,60.5524 75,60 C75,59.4476 74.5720296,59 74.0438552,59 Z" id="Shape" fill="#000000" fill-rule="nonzero"></path>
                    <rect id="Rectangle" stroke="#000000" fill="#D8D8D8" x="0.5" y="54.5" width="38" height="1"></rect>
                    <rect id="Rectangle-Copy" stroke="#000000" fill="#D8D8D8" x="13.5" y="47.5" width="25" height="1"></rect>
                    <rect id="Rectangle-Copy-2" stroke="#000000" fill="#D8D8D8" x="29.5" y="40.5" width="9" height="1"></rect>
                </g>
            </g>
        </g>
    </g>
</svg>